<?xml version="1.0" encoding="UTF-8"?>
<svg id="Layer_1" xmlns="http://www.w3.org/2000/svg" version="1.1" viewBox="0 0 1152 1152">
  <!-- Generator: Adobe Illustrator 29.8.1, SVG Export Plug-In . SVG Version: 2.1.1 Build 2)  -->
  <defs>
    <style>
      .st0 {
        fill: #0c181c;
      }

      .st1 {
        fill: #0c171a;
      }

      .st2 {
        fill: #65857f;
      }

      .st3 {
        fill: #a5bdb3;
      }

      .st4 {
        fill: #668680;
      }

      .st5 {
        fill: #7a5a4b;
      }

      .st6 {
        fill: #658580;
      }

      .st7 {
        fill: #101b1f;
      }

      .st8 {
        fill: #0f1213;
      }

      .st9 {
        fill: #b4c9be;
      }

      .st10 {
        fill: #0e1416;
      }

      .st11 {
        fill: #b6ccc0;
      }

      .st12 {
        fill: #acc2b8;
      }

      .st13 {
        fill: #0f1b1f;
      }

      .st14 {
        fill: #1e4548;
      }

      .st15 {
        fill: #d77147;
      }

      .st16 {
        fill: #0c191e;
      }

      .st17 {
        fill: #634136;
      }

      .st18 {
        fill: #a8c1b6;
      }

      .st19 {
        fill: #a8c2b6;
      }

      .st20 {
        fill: #111d21;
      }

      .st21 {
        fill: #a6beb3;
      }

      .st22 {
        fill: #a9c0b6;
      }

      .st23 {
        fill: #a8bfb5;
      }

      .st24 {
        fill: #a33a24;
      }

      .st25 {
        fill: #a6bfb4;
      }

      .st26 {
        fill: #567772;
      }

      .st27 {
        fill: #0d191d;
      }

      .st28 {
        fill: #c1492a;
      }

      .st29 {
        fill: #b1c7bb;
      }

      .st30 {
        fill: #a13d25;
      }

      .st31 {
        fill: #587a74;
      }

      .st32 {
        fill: #5a7b77;
      }

      .st33 {
        fill: #875d4a;
      }

      .st34 {
        fill: #0e1213;
      }

      .st35 {
        fill: #a13f25;
      }

      .st36 {
        fill: #4c6e6c;
      }

      .st37 {
        fill: #577874;
      }

      .st38 {
        fill: #d4764b;
      }

      .st39 {
        fill: #f1ece5;
      }

      .st40 {
        fill: #a7c0b5;
      }

      .st41 {
        fill: #be7252;
      }

      .st42 {
        fill: #a7bfb4;
      }

      .st43 {
        fill: #d9734a;
      }

      .st44 {
        fill: #a3bcb2;
      }

      .st45 {
        fill: #9e3b24;
      }

      .st46 {
        fill: #64847f;
      }

      .st47 {
        fill: #67483c;
      }

      .st48 {
        fill: #537471;
      }

      .st49 {
        fill: #abc1b6;
      }

      .st50 {
        fill: #587975;
      }

      .st51 {
        fill: #0e1c20;
      }

      .st52 {
        fill: #527371;
      }

      .st53 {
        fill: #0e1518;
      }

      .st54 {
        fill: #b1c8bd;
      }

      .st55 {
        fill: #a7beb4;
      }

      .st56 {
        fill: #101515;
      }

      .st57 {
        fill: #a8bfb4;
      }

      .st58 {
        fill: #0b171c;
      }

      .st59 {
        fill: #161616;
      }

      .st60 {
        fill: #adc4ba;
      }

      .st61 {
        fill: #aac0b6;
      }

      .st62 {
        fill: #668681;
      }
    </style>
  </defs>
  <path class="st14" d="M537.23,224.91c3.25-1.62,4.62.05,3.38,3.38,4.89,6.39,3.94,15.11,2.9,22.63l-3.91,21.43c8.4,9.67,11.35-10.29,12.25-16.46,1.8-12.41,2.88-26.25-7.15-35.48l.23-1.7c26.38,1.54,53.46,3.01,80.64,3.04,8.57-.57,40.63,1.54,44.95,12.07,2.95,7.17,2.51,17.95,1.33,26.27-2.5,17.67-7.15,41.75-12.67,58.54-3.74,11.38-6.22,14.3-17.86,17.82-14.65.23-21.59,5.05-20.83,14.47.36-.91.74-.91,1.12,0,7.88-3.42,17.39-6.38,26.49-8.29,9.72-2.13,14.69-8.97,17.29-18.12,6.06-21.34,10.85-45.5,14.87-67.45,1.3-7.13,1.88-13.82-.9-20.75,7.12.93,30.67,10.04,37.17,13.81,5.12,2.97,6.56,5.33,9.45,10.34,16.75,6.65,33.68,12.8,50.78,18.46,21.43,6.73,8.94,31.98-11.6,20.12-14.72-5.63-29.57-9.71-44.54-12.24-6.53,5.68-6.38,7.34-16.43,8.88-3.2.49-10.92-.37-12.82.12-2.8,8.61-4.57,17.64-5.32,27.08-1.84,30.02-25.05,35.01-49.86,39.86-6.06.4-9.45,2.96-10.16,7.69.22,13.19-4.17,21.86-13.16,26.01-4.91,31.91-9.25,63.78-13.02,95.62-2.82,7.98-33.15,22.89-42.81,22.19-5.24,7.84-.05,11.34,15.57,10.5,12.86-1.42,28.46-2.19,31.23,13.85,1.6,9.25-3.71,18.04-13.33,19.21-14.5-.36-28.87-.14-43.11.65-1.63,4.27-4.89,7.27-9.77,8.99-1.39,9.54-2.44,19.16-3.14,28.86.25,8.29-4.25,11.9-13.49,10.82-.76,5.12-1.61,10.19-2.55,15.21l-43.62-5.49,2.28-11.12c.51-3.09-2.07-5-7.74-5.72,1.45-13.48,2.79-26.81,4.02-39.98-12.47-4.05-19.27-10.11-18.45-23.64l3.21-26.29c1.15-5.7-1.14-10-4.27-14.46-7.58-8.5-13.54-17.66-17.86-27.5,3.97-29.3,6.8-58.69,8.49-88.15-3.05-2.89-5.09-6.07-6.12-9.54,0-8.42,4.38-42.13,8.02-48.38,6.84-6.09,15.17-10.38,25.02-12.86,2.82-13.73,5.09-27.58,6.81-41.55,4.54-22.37,8.96-35.41,30.74-45.54,10.02-4.66,19.88-4.6,28.25,2.81Z"/>
  <path class="st8" d="M381.98,905.54l-1.13,7.88c-1.26,1.22-19.14-8.54-16.98-14.05,13.65-81.34,21.5-163.63,34-245.13.82-5.34,2.7-21.85,4.97-25.4s10.44-5.27,14.59-5.66c31.49-2.95,125.98,7.87,153.95,21.52,6.19,3.02,12.42,6.16,13.13,13.87-13.28,83.99-20.6,169.05-33.94,253-.57,3.59-.94,10.31-2.71,13.04-3.19,4.9-15.86,6.45-21.3,7.95l.54-9.01c-3.34,1.32-8.91.41-11.65,1.27-3.29,1.04-.67,6.82-2.89,8.36-1.37.95-17.43,2.27-18.08,1.62-2.11-2.11,5.86-13.73-13.87-10.18-2.47.57-1.55,8.71-1.87,9.05-.62.66-17.26-.48-17.95-1.18-1.22-1.25,2.43-9.1-2.88-10.07-1.55-.28-11.18-1.17-11.88-.66-2.3,1.68.34,8.84-2.69,9.39-2.87.52-14.31-4.2-18.6-3.13-.53-2.31.78-8.51-.16-9.96-.35-.53-11.02-3.4-12.23-3.52-.31.93-.69.92-1.12,0-.19-1.95.06-2.42,1.56-2.91,6.7-2.22,19.68,4.4,16.6,13.37l12.02,1.05c-1.39-14.99,25.77-9.89,23.77,2.8l8.77,1.24c.28-12.01,17.99-12.01,23.99-5.06-.36,5.3,3.34,7.14,11.11,5.53-1.76-12.42,23.71-15.5,22.18-3.2,4.69-.94,9.57-1.99,13.56-4.68l35.42-263.26c.03-8.41-11.67-12.6-18.58-14.46-44.7-12.02-89.52-18.11-135.9-18.48-9.87-.08-22.23.75-21.53,13.32-1.66,10.21-3.17,20.88-4.62,31.63-10.3,76.47-20.84,152.87-31.65,229.26-.24,1.71,9.24,8.32,9.75,7.9.32-3.11,1.41-5.25,4.3-3.05Z"/>
  <path class="st34" d="M529.36,218.16l8.32,4.18-.45,2.57c-3.48.55-8-5.04-9.7-5.36-3.53-.67-16.47,2.35-20.32,4.03-32.91,14.34-26.68,57.13-35.13,86.09-8.65,4.58-24.36,6.04-26.84,17.31-2.9,13.21-2.77,29.02-6.01,42.5-.83,5.87,6.8,6.99,6.93,12.3-1.68,9.67-1.44,19.54-2.32,29.3-1.45,15.88-7.78,41.7-6.77,56.23.73,10.61,18.29,25.84,22.53,36.12-.39,8.99-2.68,17.99-3.36,26.91-.79,10.31-1.99,18.33,7.92,24.69,3.11,2,10.15,2.61,11.05,5.91l-5.36,38.46c12.62,1.34,7.66,8.01,5.51,16.99l42.74,5.63c.67-3.74.49-13.37,2.81-15.79s8.55,2.13,10.71-1.92c3.87-7.28,2.36-28.86,5.6-37.71.98-1.75,4.41-1.53,6.25-3.03,1.95-1.59,2.41-5.35,3.87-6.25,3.75-2.3,36.42.61,44.38-.62,13.02-2,14.99-20.24,5.71-28.07-8.8-7.41-30-.43-41.42-4.7-2.87-1.08-2.19-5.25-1.4-7.72,1.48-4.6,3.79-2.26,6.89-3.14,8.96-2.55,32.7-12.39,36.96-20.52.9-1.71,1.3-4.28,1.64-6.23,2.91-16.62,3.51-35.6,5.9-52.6,1.78-12.63,4.1-25.23,6.04-37.84,16.18-4.69,8.54-20.5,15.68-31.57,14.47-5.46,40.6-6.52,50.13-19.62,8.64-11.86,7.43-34.02,11.86-47.81.34-.73.93-.94,1.64-1.12-4.49,16.98-2.69,43.37-17.47,55.1-11.25,8.94-32.09,10.06-45.54,15.21-5.07,11.12.06,26.42-14.65,30.61-5.56,31.78-8.92,63.91-12.93,95.94-9.41,9.9-24.37,18.56-37.61,22.01-1.96.51-6.57.27-6.81.5-.31.3-.95,8.01,2.18,7.34,4.8-.14,10.95,1.61,15.32,1.7s8.23-1.59,13.44-1.15c22.47,1.9,24,33.08,2.13,35.85-6.22.79-40.34-1.1-41.9.3-.28.25-.47,3.1-2.33,4.97-2.21,2.23-6.47,2.58-6.7,2.86-1.46,1.78-2.15,32.2-5.22,38.1-2.22,4.25-10.93,1.4-11.77,2.29s-.44,14.01-2.18,15.25l-44.98-5.22c-1.05-2.47,2.67-14,2.16-14.53-.6-.63-8.65-.1-8.91-4.98l5.61-37.05c-28.8-8.79-16.82-30.51-15.84-51.93.56-12.27-13.96-23.53-19.59-34.39-1.05-2.02-2.57-3.81-2.87-6.19,2.33-26.91,7.99-53.82,9-80.85.39-10.42-1.31-6.93-5.01-13.08-2.39-3.97-1.04-9.21-.51-13.82.79-6.79,4.4-34.03,6.75-38.25,4.22-7.58,17.87-10.9,25.54-13.28,6.32-24.26,3.7-61.49,23.79-79.14,9.18-8.06,22.56-12.93,34.89-11.8Z"/>
  <path class="st53" d="M673.36,235.04c-.27.72-.65.68-1.12,0,.95,2.94,2.25,7.68,2.33,12.86.31,20.96-8.6,53.59-14.73,74.29-.53,1.81-1.11,3.56-2.23,5.1-7.19,8.37-16.99,12.9-29.4,13.58-5.53,1.69-7.02,3.52-5.55,8.11l-2.18,1.93c-2.44-1.28-1.33-7.09.5-9.06,8.81-9.5,30.68-.18,37.2-21.3,3.55-11.49,15.27-66.37,13.94-75.86-.14-.97-2.89-10.86-3.2-11.37-3.81-6.26-17.45-8.91-24.28-9.53-21.97-1.97-45.39-1.11-67.53-2.22l-30.89-2.29,6.43,11c3.04,9.8.34,28.32-2.71,38.29-2.05,6.7-6.11,10.89-11.35,4.03,1.54-14.6,8.46-30.25,1.99-44.32,6.49,2.02,5.94,13.48,5.22,19.72-.48,1.53-7.23,33.27-.21,24.53,5.12-6.37,8.6-41.32.61-48.74-4.2.87-8.86-2.48-6.75-6.75,9.38.17,19.35,1.87,28.64,2.3,23.95,1.09,48.11.72,72.09,2.16,13.23.79,23.95,3.58,33.14,13.55Z"/>
  <path class="st10" d="M720.61,286.79c1.95-1.69,2.32-1.18,4.75-.87,16.68,2.17,36.04,13.22,53.21,15.59,7.51-1.14,10.94-11.84,6.21-17.58-1.65-2-7.22-3.7-9.89-4.74-16.3-6.33-33.3-11.27-49.51-17.91-2.92-3.64-2.94-6.84-7.34-9.62-9.75-6.15-27.16-9.07-37.93-14.37,3.49,7.09,1.94,14.17.8,21.6-2.74,17.73-8.02,40.83-12.57,58.31-7.79,29.89-15.35,22.98-39.48,31.39-1.5.52-10.56,7.52-7.25,2.31-.24-.5-.41-.98-.33-1.41.4-2.07,19.1-7.09,22.83-6.46,15.55-4.6,18.05-12.24,21.85-27.13,2.28-11.82,4.75-23.4,7.4-34.74,2-9.89,3.9-19.97,5.67-30.25.42-4.5.65-10.73-2.3-13.62-.63,2.15-1.62,2.15-2.25,0-1.14,2.41-2.97-.37-2.25-2.25.23-.09.86-.04,1.12,0,3.23.52,5.45-.01,7.86.48,5.97,1.21,37.83,13.78,41.11,17.49,1.75,1.97,2.41,4.82,3.85,6.28,3.96,4.02,42.44,15.27,50.95,18.8,4.88,2.02,9.91,3.14,10.91,9.34,1.26,7.8-1.94,13.91-9.55,16.21l-57.88-16.83Z"/>
  <path class="st26" d="M539.48,217.04c.3,2.83,3.85,3.58,6.75,6.75,8.12,6.85,4.28,43.34-.69,48.84-.85.95-3.03.67-3.81-.48l4.1-24.24c.59-6.28,1.45-17.11-5.23-19.63-1.04-1.3-2.16-2.27-3.38-3.38-2.87-2.62-5.91-3.63-7.88-6.75,5.55.51,8.54,4.82,10.12-1.12Z"/>
  <path class="st59" d="M381.98,905.54c-4.52-5.38,2.54-3.79,6.63-2.34,7.28,2.58,8.39,6.01,8.31,13.13l9.6,2.43c.33-3.19,1.35-7.06,4.71-4.22.28-.08.82-.03,1.12,0l-2.26,9.01c-2.42-.45-17.31-3.88-17.92-4.58-1.12-1.31,1.81-6.55.02-9.27-.87-1.32-9.73-4.61-10.22-4.16Z"/>
  <path class="st39" d="M534.98,289.04c34.8-1.67,70.21-2.86,106.23-3.56,4.71,1.87,1.4,17.35.16,21.99-2.91,10.87-5.52,13.86-16.93,16.14s-18.14,2.89-25.35-6.71c-21.79-4.56-43.92-6.69-66.4-6.39l-2.2-1.22c.45-5.63,2.57-14.86,4.5-20.25Z"/>
  <path class="st0" d="M537.23,383.54c.54.27,2.31-.69,2.32.66-4.33,21.81-4.98,44.18-8.09,66.13-.56,3.96-1.82,18.53-5.11,19.65l-53.54-5.72c-3.84-1.73-4.35-4.15-4.24-8.11.25-8.66,3.08-26.88,4.83-35.76.56-2.84,1.16-7.36,4.68-7.51l30.5,3c2.02-.35,2.04-6.06,1.64-6.46-1.62-1.6-27.44-.95-31.5-3.38v-1.12c.34-.61.67-1.08,1.01-1.08,5.4.03,28.99,1.16,31.88,3.97,3.05,2.97,1.07,10.1-3,10.07-10-.07-20.14-.84-29.88-2.84-1.57,2.52-9.59,41.46-7.34,44.96,1.05,1.63,4.04,2.19,5.9,2.49l38.19,4.1,1.5,1.32c2.77-.35,5.71-.67,8.81-.97,3.79-26.72,7.2-53.57,10.24-80.53l1.2-.63c-2.99-.36-2.86-1.39,0-2.25Z"/>
  <path class="st56" d="M534.98,289.04c.03-.08-1.56-.78-.12-1.7,35.45-.69,70.92-.94,106.4-2.76,6.81,1.29,2.5,16,1.2,21.38-3.29,13.56-5.68,17.13-20.43,18.95-2.36.29-12.93,1.04-14.54.81-1.84-.27-6.02-6.5-8.47-7.9-6.96-3.98-43.01-5.6-53.37-6.26-5.03-.32-10.15.21-15.18-.02.03-.74-.05-1.5,0-2.24,22.66,1.55,46.3.99,68.29,6.52,3.45,1.32,6.48,7.68,9.96,8.14,1.15.15,13.65-.99,15.57-1.28,20.03-3,16.05-19.77,18.57-35.78l-2-.59-105.88,2.73Z"/>
  <path class="st58" d="M557.48,362.16c-3.05,1.95-13.16,1.3-17.48,1.17-21.3-.64-42.84-4.04-64.09-5.66-4.99-.38-19.61.82-23.09-1.65-2.04-1.45-1.46-7.05.5-8.59,4.73-3.73,29.22,1.76,30.99.05,1.79-5.94.93-23.6,7.6-25.57l54.88,3.14c5.62,2.08,14.71-1.48,14.18,7.3-.19,3.24-1.53,4.95-4.82,4.83-6.8-.25-15-1.84-21.68-2.06-3.01-.1-11.18-.53-13.39.2-2.63.87-2.42,11.29-2.94,14.44,2.16,2.23,35.33.38,40.5,3.93,2,2.98,2,6.45-1.15,8.47q-2.35-3.11,0,0Z"/>
  <path class="st0" d="M568.41,228.53l77.25,3.27c7.98.32,18.38,5.85,9.02,13.11l-38.08-3.17-47.23-1.15c-7.62-1.2-8.29-9.88-.96-12.06Z"/>
  <path class="st27" d="M587.86,397.04c4.33-1.77,7.21-1.74,7.93,3.88-4.68,21.83-4.43,46.9-9.34,68.39-.74,3.22-2.92,10.77-6.99,10.94-5.99.24-5.38-6.48-5.07-10.64,1.12-15.09,6.27-35.17,8.79-50.83,1.11-6.9,2.1-14.04,2.39-21.04.25-1.4,1.73-.48,2.3-.71,1.17,11.71.28,23.59-2.66,35.64l-6.43,32.61c-3.24,12.47.97,15.35,3.73,2.62,4.84-22.3,7.44-45.64,8.8-68.24-1.74-.03-2.76-.73-3.44-2.62Z"/>
  <path class="st1" d="M509.97,307.9c-2.19,2.24-8.7,2.08-9.69-1.68,4.31-19.51,5.73-42.98,11.91-61.92,1.48-4.55,8.16-19.17,13.91-12.16,2.61,3.19-4.21,13.59-5.43,18.39-2.12,8.34-8,54.6-10.7,57.36Z"/>
  <path class="st16" d="M577.38,247.64l58.22,3.22c6.92,2.15,6.72,8.99,0,11.22l-31.39-2.33c-9.11-.64-42.03,4.54-26.83-12.11Z"/>
  <path class="st16" d="M478.73,511.79c.24-.79-.56-2.35.58-2.26,4.5,2.39,31.15,3.43,32.69,5.56,1.85,2.57-1.76,29.37-5.12,31.03-3.75,1.85-29.01-.78-32.14-3.89-1.66-1.64-1.76-2.79-1.68-5.07.28-7.78,2.85-16.88,3.44-24.8l1.12,2.8.9.4c-1.7,8.33-2.25,16.61-1.66,24.82,7.48,1.88,14.86,3.22,22.14,4.02,2.66-.29,4.91-.29,6.75,0,1.52-5.39,5.42-25.39,3.41-27.69l-28.93-3.64c-1.05.69-1.49.16-1.48-1.29Z"/>
  <path class="st21" d="M505.73,544.41c-2.06.43-4.31.43-6.75,0-3.95-.41-21.46-.93-23.13-3.31-1.35-1.93,1.02-22.21,1.75-25.94.08-.42.83-2.37,1.12-3.38l32.13,4.47c-.8,7.69-1.53,15.48-2.86,23.12-.34,1.97.48,4.22-2.28,5.04Z"/>
  <path class="st27" d="M479.51,485.01c1.75-.53,3.59-.29,5.38-.23,5.16.19,23.08,2.49,27.65,3.88,8.06,2.45,4.65,16.08-2.86,16.48-8.53-2.59-24.91-1.05-32.39-4.85-5.52-2.8-1.91-14.02,2.22-15.28Z"/>
  <path class="st51" d="M557.48,384.66c-.32.98-.7.97-1.12,0-.4,1.62-2.11,2.21-5.13,1.77-3.64,25.6-7.1,51.35-10.38,77.25-.54,3.68.88,6.59,4.26,8.73.32-.98.7-.97,1.12,0-3.2,4.57-8.61.77-9.05-3.88,2.25-21.3,3.96-42.84,6.95-64.04.57-4.03,2.38-18.32,4.29-20.46,2.38-2.67,6.94-2.19,9.07.62Z"/>
  <path class="st13" d="M594.61,336.29c1.61.76,1.83,3.22,1.72,5.02-.02.27-1.36-4.66.53-5.02,5.13.5,4.72,12.01,4.48,16.3-.29,5.18-2.25,21.11-3.59,25.65-1.14,3.86-7.61,4.31-9.33.8-1.58-3.24,2.08-30.89,3.12-36.26.45-2.32.66-5.66,3.07-6.49Z"/>
  <path class="st7" d="M546.23,472.41h-1.12l-2.1-1.33c3.65-28.44,7.29-56.9,10.94-85.36l2.4-1.06h1.12c2.93,3.88-1.39,17.91-2.1,23.22-2.49,18.79-3.58,39.87-7.05,58.2-.46,2.43-.62,4.22-2.1,6.34Z"/>
  <path class="st20" d="M512.48,391.41c1.73,3.23.53,8.83-3.17,10l-29.06-3.13-1.52,6.63v1.12c-3.93-2.36-2.85-10.36.69-10.99l30.81,3.12v-5.64c-6.29-.87-27.08-.69-30.38-5.62.32-.98.7-.97,1.12,0,.11-1.36,1.25-1.42,3.41-.16,9.67.92,19.04,2.48,28.09,4.66Z"/>
  <path class="st57" d="M596.86,336.29c.16,2.25,1.92,4.04,2.19,6.25.77,6.36-1.28,28.8-3.37,34.75-1.45,4.14-5.2,2.68-5.61.99-2.46-10.04,4.36-30.95,4.54-41.99.4-.14,1.66-.06,2.25,0Z"/>
  <path class="st0" d="M537.23,383.54l-.46,1.1c-17.53-1.79-35.07-3.57-52.61-5.36-3.07,1.1-3.3,4.14-1.72,6.78l-1.46.85h-1.12c-1.94-2.91-.8-8.11,2.24-9.56,4.3-2.05,32.9,3.08,39.95,3.93,6.47.78,8.43-1.14,15.18,2.26Z"/>
  <path class="st11" d="M657.61,328.41c.99,6.75-9.82,10.45-15.57,12.2.93-.11,1.6.39,2.07,1.3.98.32.97.7,0,1.12-4.61,1.35-9.67,1.86-14.12,3.32-3.09,1.01-6.61,4.09-8.38,4.55-.2.05-.97.08-1.12,0,.03-14.53,14.35-10.67,24.39-14.42,5.55-2.07,8.33-5.67,12.73-9.21v1.12Z"/>
  <path class="st49" d="M503.48,565.79c-.29,2.22-1.42,2.16-2.25,0-1.64,1.7-4.47,2.19-8.48,1.45l-3.41,24.93c3.9.69,6.74,2.02,8.52,3.99.27-1,.65-.98,1.12,0-1.39,2.47-12.77.59-13.37-.12-.59-11.34,3.03-22.45,4.38-33.64l12.77,2.44.72.95Z"/>
  <path class="st44" d="M561.98,543.29l-1.77,6.81c-7.65-1.11-19.19,1.97-15.09-9.07l16.86,2.26Z"/>
  <path class="st23" d="M503.48,565.79l-4.5,30.38c-.37.04-.76-.05-1.12,0-.86-.2-2.14-.62-2.12-1.26.05-3.04,2.42-26.34,3.08-27.73l2.42-1.38c.74.06,1.5-.04,2.25,0Z"/>
  <path class="st14" d="M381.98,905.54c-3.31.5-.89,6.4-3.9,5.6-3.34-.9-12.15-6.74-12.48-10.61,13.44-82.52,22.18-165.82,34.54-248.51.71-4.74,2.4-19.46,4.45-22.55,2.56-3.83,14.99-4.93,19.58-5.17,33.96-1.79,102.3,7.94,135.3,17.67,8.91,2.63,24.76,7.23,22.82,18.9l-35.5,262.67c-1.59,3.39-14.13,5.9-17.99,6.76-1.24-2.06,2.25-5.52-.52-7.39-1.47-.99-9.52-.74-11.63-.26-6.92,1.59-4.65,9.19-5.31,9.88-.52.55-13.73.31-15.18,0-.77-.16,2.44-5.72-2.43-8.93-2.2-1.45-9.69.78-13.12-1.04-4.12.98-3.78,10.02-4.72,9.98-3.98-.16-9.36-2.23-14.04-1.15,5.08-10.08-6.55-12.21-14.33-12.08-4.59.08-3.78,6.66-3.68,9.83-2.56-1.81-16.26-1.65-16.87-2.24-.66-.64,1.5-7.68-1.59-10.22-1.35-1.11-12.17-4.32-14.15-2.16-3.64,1.07-1.73,6.19-2.25,6.76s-14.02-2.93-14.51-3.49c-.96-1.11,1.24-6.7-1.22-9.47-.45-.51-13.01-7.86-11.26-2.8Z"/>
  <path class="st12" d="M546.23,223.79c9.32,10.17,5.46,32.43,1.75,45.06-1.25,4.27-3.15,7.35-7.45,3.73,1.28-11.73,8.65-32.1,2.15-42.47-.66-1.05-1.69-1.35-2.07-1.82l.56-2.24c12.04,11.42,2.59,30.17,1.69,44.45-.14,2.24.25,1.75,2.25,1.67,3.33-16.06,9.63-32.92,1.14-48.38Z"/>
  <path class="st54" d="M674.48,237.29c.42.01.82.06,1.14.25,1.66,1,.68,16.06.37,18.62-.76,6.24-12.9,72.45-16.79,72.59-.52.02-1.06-.14-1.59-.34v-1.12c4.82-22.1,12.25-46.06,15.42-68.39,1.48-10.4,1.1-11.6-1.46-21.54-.36-1.38-1.15-1.64.66-2.32.09,1.06,2.19,2.08,2.25,2.25Z"/>
  <path class="st36" d="M676.73,237.29c.6.28,1.11.59,1.31,1.05,3.91,8.71-2.39,32.1-5.02,41.72-.11.41-.42.77-.79,1.11-1.43,14.09-4.68,28.28-8.14,41.91-2.67,10.48-8.75,17.8-19.98,18.84-4.57,1.32-10.41,1.52-15.53,3.03-1.29.38-9.65,5.5-5.32-.82,3.05-4.46,24.48-1.64,34.35-15.71,2.61-3.71,3.14-5.36,4.41-9.65,4.43-14.9,16.72-68.86,12.46-81.48.75,0,1.5,0,2.25,0Z"/>
  <path class="st9" d="M644.11,343.04v-1.12c15.64-4.51,17.28-11.37,20.85-25.84,2.73-11.06,5.05-23.65,7.27-34.91.32-.98.7-.97,1.12,0-2.53,12.46-6.26,43.66-13.01,52.8-4.54,6.15-9.53,7.11-16.24,9.07Z"/>
  <path class="st29" d="M676.73,237.29c1.08,0,1.69-.54,2.29.73,4.88,10.29-3.45,32.27-5.66,43.15h-1.12c2.82-14.28,7.99-29.4,4.5-43.88Z"/>
  <path class="st19" d="M512.48,391.41c6.42.49,3.58,10.26-1.5,12.76,7.91,4.15,6.58,13.53-2.04,16.56-2.2.77-25.34-.88-28.22-1.61l-1.99-1.83c-1.63-.59-1.58-1.52,0-2.25,9.9.82,19.86,1.82,29.82,2.25,4.44-.84,5.63-8.47.88-9.89-8.2-2.44-21.85-1.45-30.7-2.49-1.26-2.65-.39-5.12.04-7.84l29.72,3.34c3.8.3,5.12-7.22,3.99-8.99Z"/>
  <path class="st60" d="M478.73,415.04c-.12.71.17,1.65,0,2.25l1.77,2.04c-3.02,12.83-6.07,26.16-6.22,39.29,13.85,2.05,27.79,3.83,41.81,5.36l2.02,1.69c2.84,1.68,1.65,1.98-1.12,2.25-12.32-1.34-27.94-2.61-39.84-4.6-1.92-.32-6.03-1.41-6.83-3.2-1.47-3.28,6.15-38.43,6.28-44.99.69-.23,1.43-.14,2.14-.08Z"/>
  <path class="st3" d="M537.23,385.79l-10.36,81.34c-.7,2.15-7.21,1.07-9.89.78l1.12-2.25c1.03-1.33,2.89-1.79,5.59-1.37l8.9-77.43,2.39-1.07c0-1.8,1.69-1.67,2.25,0Z"/>
  <path class="st18" d="M537.23,383.54v2.25c-.72-.08-1.56.12-2.25,0l-4.81,1.5-37.28-3.52c-25.24-2.6,12.28,3.24,17.67,3.4,2.64.67,3.67,1.83,1.91,4.24-.85-1.34-27.53-2.58-31.5-4.5-.13-3.36-.7-7.26,2.94-8.74l53.31,5.36Z"/>
  <path class="st25" d="M557.48,362.16l-104.38-8.39c1.69-8.09,1.57-5.11,7-5.05,3.79.04,24.04.48,25.46-.54,2.55-4.34,1.86-22.6,6.3-24.08,22.65.73,45.37,2.35,67.88,4.32l-1.88,6.79c-6.46.46-34.95-4.23-38.67-1.78-1.67,1.1-6.06,19.11.63,18.57l36.91,2.23c2.56,2.07,1.51,5.27.75,7.92Z"/>
  <path class="st55" d="M565.51,237.14c-.69-1.12-.35-5.22.9-6.11,3.04-2.17,15.57.56,19.71.68,19.95.6,42.13-.08,61.79,2.33,5.59.68,13.2,4.29,5.76,8.9l-88.17-5.8Z"/>
  <path class="st40" d="M587.86,397.04c5.76.3,5.94.84,5.61,6.14-1.03,16.79-5.3,52.43-9.51,68.16-2.21,8.25-8.67,9.28-8.42,2.94.47-11.86,5.56-30.48,7.63-43.11,1.85-11.29,3.41-22.75,4.69-34.12Z"/>
  <path class="st22" d="M522.07,231.67c6.6-1.44-1.75,14.02-2.51,16.63-2.26,7.79-9.05,56.58-11.53,58.22-1.79,1.18-6.76,1.1-6.37-1.81,5.53-18.29,6.25-39.13,11.38-57.31,1.03-3.66,5.17-14.89,9.03-15.73Z"/>
  <path class="st42" d="M575.64,256.27c-.69-1.11-.35-5.22.9-6.11,3-2.14,14.57.55,18.59.68,6.73.23,38.89-.05,42.23,2.76,1.16.97,1.33,1.93,1.2,3.37-.52,5.54-11.52,1.76-15.21,1.65-5.84-.18-46.44-.32-47.71-2.35Z"/>
  <path class="st4" d="M498.98,544.41l4.49-1.11c-4.6-.85-24.84-.8-26.41-4.45-.49-1.14,1.93-23.91,2.88-24.72l29.17,3.28c-.99,8.94-1.67,18-4.4,26.47-.2.63,1.04.48,1.02.53-1,3.02-6.29.05-6.75,0Z"/>
  <path class="st61" d="M514.58,491.69c1.5,2.34.67,10.23-3.83,11.07-3.94.74-18.51-1.63-23.4-2.41-1.91-.31-10.54-1.21-10.92-2.81-.8-3.3.1-9.76,3.98-10.5,3.48-.66,33.24,3.19,34.17,4.65Z"/>
  <path class="st3" d="M556.36,384.66l-11.25,87.75c-11.69,1.49-4.38-18.09-3.52-25.46,1.38-11.86,2.11-23.86,3.68-35.7.65-4.91,2.38-22.4,3.78-25.47s4.63-1.44,7.31-1.13Z"/>
  <path class="st52" d="M595.74,339.67c1.58-.26,1.79,3.18,1.92,4.25.87,7.5-1.88,20.82-3.04,28.95-.27,1.91.52,3.65-1.7,5.03l-.56-11.79,3.38-26.44Z"/>
  <path class="st6" d="M501.23,565.79l-3.38,30.38c-3.79.5-7.46-1.57-11.26-1.12.85-3.85,3.45-29.26,4.55-30.32,1.02-.97,7.95.91,10.08,1.07Z"/>
  <path class="st50" d="M559.73,544.42c2.65,6.72-12.78,3.44-13.49,1.67-.15-.37-.1-2.68,0-2.8.43-.52,10.87,2.53,13.49,1.13Z"/>
  <path class="st17" d="M511.36,645.66c10.29,1.11,20.42,3.05,30.41,5.82-8.85,67.5-17.48,134.19-25.91,200.06-1.86,16.38-4.02,34.04-7.02,50.77l-11.73-2.13c-.08-3.34-.2-6.8-.38-10.39-3.38-2.89-11.75-1.81-15.75-1.12-.72,2.67-1.38,5.48-1.99,8.43-5.74-.64-11.34-1.65-16.81-3.04l.58-8.96-.91.2c-1.28-.22-3.1-2.66-5.3-3.15-1.46-.32-9.01-.57-9.33-.23-.39.41-.25,10.26-1.19,11.19-.31.31-3.41.1-4.44.06l-1.49-1.43c.91-6.74,2.16-13.39,3.74-19.94,4.53-58.73,12.55-117.44,20.75-175.84,2.19-18.08,4.53-36.14,9.62-53.66-1.48-1.5-.85-1.99,1.12-1.12,12.11,1.59,24.11,3.09,36,4.5Z"/>
  <path class="st43" d="M475.36,640.04c.98.32.97.7,0,1.12l-1.12,1.12c-1.02.68-2.16,1.43-3.42,1.41-3.42-.06-29.62-2.58-31-3.3-2.5-3.98-2.77,1.05-2.22,11.03-6.26,48.6-12.9,97.2-19.64,145.74-1.23,8.87-3.42,17.57-5.59,26.25-.58,2.94-1.33,2.89-2.25,0,6.54-52.96,13.85-106.21,21.52-159.04.64-4.38,3.59-28.06,6.12-28.7,12.44,2.12,25.1,2.85,37.61,4.37Z"/>
  <path class="st30" d="M511.36,645.66c10.49,1.17,21.38,1.41,31.52,5.11-10.19,66.7-16.95,133.91-25.9,200.76-.32.98-.7.97-1.12,0,2.72-20.65,4.24-41.61,6.89-62.3,5.86-45.77,12.18-91.51,17.93-137.3-9.63-2.35-19.58-4.43-29.32-6.28Z"/>
  <path class="st15" d="M412.36,823.41l1,4.09c-2.04,19.96-4.16,39.94-6.35,59.94l1.95-.44c.59-6.46,2.48-8.91,5.65-7.34-1.95,10.62-.08,12.59-12.37,11.24,3.09-22.42,5.1-45.03,7.87-67.49h2.25Z"/>
  <path class="st45" d="M516.98,851.54c-2.31,17.25-4.81,34.54-7.28,51.78l-14.07-2.31,1.1-11.23c3.03,2.59-.29,8.08.47,9.06s10.65,3.58,11.38,2.25c2.55-13.53,3.37-27.31,5.19-40.95.38-2.86,1.79-6.39,2.09-8.61h1.12Z"/>
  <path class="st41" d="M441.61,893.16c-2.13-.08-11.1-1.07-11.89-2.17-3.87-5.38,6.67-14.15-15.11-11.33-2.66.06-2.99-1.45-1.22-3.44,2.39-2.71,17.55-.9,19.53,3.58,2.08,16,4.76,13.25,8.04-8.25l2.9.24c-.95,6.89-2.3,14.47-2.25,21.38Z"/>
  <path class="st38" d="M377.48,888.66c-1.3-7.51,3.94-8.33,10.13-7.88.04,9.29-.12,13.24-10.6,12.4-1.1.1-.73-1.48-.66-2.27l1.12-2.25Z"/>
  <path class="st28" d="M537.23,912.28c-1.57-.86-9.67-3.06-10.02-3.46-1.18-1.35,1.78-8.75,1.03-11.16,11.61,1.09,10.6,4.72,8.99,14.63Z"/>
  <path class="st35" d="M511.36,645.66c-2.68-.3-5.65.27-8.42-.01-9.17-.94-18.51-2.87-27.58-4.49v-1.12c12.2,1.49,24.16,3.38,36,5.62Z"/>
  <path class="st5" d="M377.48,888.66c.17.02.59.99,1.1,1.14.16-5.85.49-7.77,6.78-6.77,1.32,7.51-2.17,9.44-9,7.88.05-.55-.08-1.11.01-1.67.23-.56.57-.64,1.11-.58Z"/>
  <path class="st24" d="M461.86,885.29c.08.01.41-1.35,1.11-1.14.34,1.77-.41,9.74.01,10.14.57.55,13.24.35,15.75,2.24l1.19-9.01c.5-.02.99,1.15,1.07,1.14.21,1.51-.72,8.49-1.21,8.91-.79.67-18.43-2-18.77-3.79-.22-1.21,1.82-6.2.85-8.49Z"/>
  <path class="st62" d="M534.98,385.79l-9.16,79.15c-1.23,3.89-5.93.89-7.72.72-12.1-1.1-25.7-1.88-37.55-3.51-1.72-.24-7.38-1.05-8.09-2.03-.71-1.25-.58-2.6-.52-3.96.38-9.5,4.14-29.74,6.79-38.87,9.09-3.16,36.39,8.99,34.96-6.2-.09-1-.18-1.9-.64-2.82-2.35-4.75-27.2-4.35-33.21-5.61v-3.37s29.59,3.19,29.59,3.19c4.41-2.27,5.67-6.96,3.04-11.07-1.06-1.65-.78-1.58-2.86-2.17-4.95-1.4-26.23-1.3-27.42-5.25-.54-1.79.05-2.98,1.77-3.67,16.52,2.65,34.74,2.56,51,5.47Z"/>
  <path class="st46" d="M557.49,329.54v3.37s-37.46-2.05-37.46-2.05c-4.83,1.46-8.51,21.29-1.12,23.19,10.13,1.88,25.18-.33,34.64,1.36,2.78.5,3.13,1.8,2.81,4.49l-101.25-6.75v-3.36c1.83-1.92,25.11,3.07,30.38.56,5.68-2.71,2.65-23.99,7.39-25.16l64.61,4.35Z"/>
  <path class="st32" d="M654.23,240.66c-17.04-1.3-34.12-1.37-51.17-2.26-2.17-.11-4.32-1.04-6.72-1.16-2.91-.15-29.89.67-29.84-2.77.07-3.93,22.24-.59,25.24-.52,16.54.39,34.22-.14,50.66,1.09,4,.3,13.38.41,11.82,5.61Z"/>
  <path class="st37" d="M592.35,399.29l-9.27,68.91c-.51,5.34-5.73,13.51-5.38,3.7.41-11.6,5.57-29.7,7.57-42.01,1.64-10.06,3.2-20.42,3.71-30.62h3.37Z"/>
  <path class="st48" d="M523.73,233.92c-1.02,4.52-3.83,7.52-5.31,12.12-5.63,17.43-5.43,38.8-10.36,56.02-.49,1.72-.16,3.92-2.87,3.85-2.44-1.57-.97-2.22-.73-4.04,1.48-11.38,9.63-58.93,15.43-65.62,1.12-1.29,1.74-2.77,3.84-2.34Z"/>
  <path class="st31" d="M637.35,257.53c-19.34,0-38.66-1.37-57.96-2.24-3.07-.14-2.82-3.9,1.44-3.78,17.93.53,35.77,1.92,53.71,2.65l2.81,3.36Z"/>
  <path class="st2" d="M480.57,488.24l30,3.52c4.63,1.32,4.46,9.82-1.97,9.95-3.48.07-26.19-3.48-29.09-4.79s-.74-8.09,1.06-8.69Z"/>
  <path class="st32" d="M543.98,470.17c-.24.22-2.45-.14-3.36,0,.01-2.04-.16-4.13,0-6.18,1.81-21.74,5.18-50.52,9.17-71.83.81-4.34,1.12-10.57,5.23-3.84l-11.04,81.85Z"/>
  <path class="st33" d="M474.23,642.29c-10.86,76.38-19.78,153.09-30.38,229.5-4.02,1.82-1.73,18.32-5.24,19.17-9.6,2.34-6.05-4.9-7.35-9.4s-12.63-4.62-16.51-3.95c-.54.44.02,1.8-.15,2.05-.26.39-1.38.59-1.96,1.94-2.48,5.83.73,8.16-8.16,8.19,1.61-22.24,5.14-44.28,7.87-66.38,7.66-61.94,16.75-123.72,24.75-185.63,12.31,1.78,25.17.92,37.12,4.51Z"/>
  <path class="st47" d="M535.95,901.2c.9,1.44-.27,6.68.15,8.83-7.24-1.59-8.14-3.04-6.74-10.13.39-.41,6.13.56,6.59,1.3Z"/>
</svg>